<svg xmlns="http://www.w3.org/2000/svg" viewBox="0 0 640 480"> <!-- blue field --> <rect width="640" height="480" fill="#012169"/> <!-- union jack (normalized to 4:3) --> <g transform="scale(0.5)"> <rect width="640" height="480" fill="#012169"/> <path d="M0 0L640 480M640 0L0 480" stroke="#fff" stroke-width="96"/> <path d="M0 0L640 480M640 0L0 480" stroke="#C8102E" stroke-width="64"/> <path d="M320 0v480M0 240h640" stroke="#fff" stroke-width="160"/> <path d="M320 0v480M0 240h640" stroke="#C8102E" stroke-width="96"/> </g> <!-- simplified coat of arms (flag-icons style placeholder) --> <g transform="translate(420 140) scale(0.9)"> <path d="M60 0c40 0 80 20 80 60v60c0 60-80 120-140 140C-60 240-140 180-140 120V60c0-40 40-60 80-60z" fill="#fff" stroke="#000" stroke-width="4"/> <path d="M-90 80h180v40c0 40-90 90-90 90s-90-50-90-90z" fill="#2E8B57"/> <path d="M-20 110l20-30 20 30-20 30z" fill="#fff"/> </g> </svg>